<svg xmlns="http://www.w3.org/2000/svg" viewBox="0 0 364.54 106.86"><defs><style>.cls-1{fill:#fff;}</style></defs><g id="Layer_2" data-name="Layer 2"><g id="Layer_1-2" data-name="Layer 1"><path class="cls-1" d="M169,106.63V93.82h6.29c2.35,0,3.65,1.46,3.65,3.26a2.88,2.88,0,0,1-2.23,2.94,3.15,3.15,0,0,1,2.48,3.15c0,2-1.32,3.46-3.72,3.46Zm7.64-9.16a1.64,1.64,0,0,0-1.81-1.67H171.2v3.32h3.59a1.62,1.62,0,0,0,1.81-1.65m.25,5.39a1.76,1.76,0,0,0-2-1.76H171.2v3.55h3.69a1.73,1.73,0,0,0,2-1.79"/><polygon class="cls-1" points="187.13 106.63 187.13 101.31 182.16 93.82 184.73 93.82 188.26 99.31 191.76 93.82 194.33 93.82 189.38 101.31 189.38 106.63 187.13 106.63"/><rect class="cls-1" x="205.82" y="93.82" width="3.3" height="12.8"/><polygon class="cls-1" points="222.83 106.63 217.41 99.22 217.41 106.63 214.11 106.63 214.11 93.82 217.51 93.82 222.69 100.87 222.69 93.82 226.02 93.82 226.02 106.63 222.83 106.63"/><path class="cls-1" d="M230.08,104.82l1.75-2.48a5.74,5.74,0,0,0,4.09,1.69c1.13,0,1.82-.44,1.82-1,0-1.75-7.26-.35-7.26-5.28,0-2.15,1.83-4.07,5.11-4.07a7.79,7.79,0,0,1,5.2,1.78L239,97.78a6,6,0,0,0-3.75-1.33c-1,0-1.38.38-1.38.92,0,1.63,7.24.45,7.24,5.21,0,2.57-1.9,4.28-5.34,4.28a7.83,7.83,0,0,1-5.68-2"/><polygon class="cls-1" points="247.85 106.63 247.85 96.7 244.26 96.7 244.26 93.82 254.73 93.82 254.73 96.7 251.16 96.7 251.16 106.63 247.85 106.63"/><path class="cls-1" d="M266.13,106.63l-2.15-4.3h-1.69v4.3H259V93.82h6.41a4.12,4.12,0,0,1,4.46,4.26,3.87,3.87,0,0,1-2.55,3.84l2.61,4.71Zm.36-8.57a1.43,1.43,0,0,0-1.59-1.36h-2.61v2.75h2.61a1.42,1.42,0,0,0,1.59-1.39"/><path class="cls-1" d="M274.35,101.44V93.82h3.36v7.51a2.7,2.7,0,0,0,5.4,0V93.82h3.34v7.6c0,3.19-1.94,5.44-6,5.44s-6.07-2.27-6.07-5.42"/><path class="cls-1" d="M290.78,100.23c0-4,3-6.62,6.93-6.62a5.91,5.91,0,0,1,5.59,3.44l-2.84,1.34a3.07,3.07,0,0,0-2.75-1.86,3.71,3.71,0,0,0,0,7.41,3.09,3.09,0,0,0,2.75-1.86l2.84,1.34a6,6,0,0,1-5.59,3.44c-3.93,0-6.93-2.69-6.93-6.63"/><polygon class="cls-1" points="310.26 106.63 310.26 96.7 306.67 96.7 306.67 93.82 317.14 93.82 317.14 96.7 313.56 96.7 313.56 106.63 310.26 106.63"/><path class="cls-1" d="M321.39,101.44V93.82h3.36v7.51a2.7,2.7,0,0,0,5.4,0V93.82h3.34v7.6c0,3.19-1.94,5.44-6,5.44s-6.07-2.27-6.07-5.42"/><path class="cls-1" d="M345.62,106.63l-2.15-4.3h-1.69v4.3h-3.31V93.82h6.41a4.12,4.12,0,0,1,4.46,4.26,3.87,3.87,0,0,1-2.55,3.84l2.61,4.71Zm.36-8.57a1.43,1.43,0,0,0-1.59-1.36h-2.61v2.75h2.61A1.42,1.42,0,0,0,346,98.06"/><polygon class="cls-1" points="353.85 106.63 353.85 93.82 363.23 93.82 363.23 96.7 357.15 96.7 357.15 98.7 363.1 98.7 363.1 101.58 357.15 101.58 357.15 103.75 363.23 103.75 363.23 106.63 353.85 106.63"/><path class="cls-1" d="M13.14,45.2a13.09,13.09,0,0,0-11.49-13,51.92,51.92,0,0,0,0,26,13.09,13.09,0,0,0,11.49-13"/><path class="cls-1" d="M20.75,41.1a4.11,4.11,0,1,0,4.11,4.1,4.11,4.11,0,0,0-4.11-4.1"/><path class="cls-1" d="M77.43,45.2a13.09,13.09,0,0,0,11.49,13,51.92,51.92,0,0,0,0-26,13.09,13.09,0,0,0-11.49,13"/><path class="cls-1" d="M69.82,41.1a4.11,4.11,0,1,0,4.11,4.1,4.11,4.11,0,0,0-4.11-4.1"/><path class="cls-1" d="M45.2,77.47A13.1,13.1,0,0,0,32.21,89a52.27,52.27,0,0,0,26,0,13.1,13.1,0,0,0-13-11.49"/><path class="cls-1" d="M45.2,65.75a4.11,4.11,0,1,0,4.11,4.11,4.1,4.1,0,0,0-4.11-4.11"/><path class="cls-1" d="M45.2,13.14a13.1,13.1,0,0,0,13-11.49,52,52,0,0,0-26,0,13.1,13.1,0,0,0,13,11.49"/><path class="cls-1" d="M45.2,16.64a4.11,4.11,0,1,0,4.11,4.11,4.1,4.1,0,0,0-4.11-4.11"/><path class="cls-1" d="M68,68a13.1,13.1,0,0,0-1.06,17.3A52,52,0,0,0,85.27,66.9,13.11,13.11,0,0,0,68,68"/><path class="cls-1" d="M59.69,59.69a4.1,4.1,0,1,0,5.81,0,4.09,4.09,0,0,0-5.81,0"/><path class="cls-1" d="M22.5,22.5A13.09,13.09,0,0,0,23.57,5.21,52,52,0,0,0,5.2,23.57,13.09,13.09,0,0,0,22.5,22.5"/><path class="cls-1" d="M25,25a4.11,4.11,0,1,0,5.81,0A4.12,4.12,0,0,0,25,25"/><path class="cls-1" d="M68,22.46a13.1,13.1,0,0,0,17.29,1.07A52,52,0,0,0,66.88,5.16,13.09,13.09,0,0,0,68,22.46"/><path class="cls-1" d="M65.47,30.75a4.11,4.11,0,1,0-5.81,0,4.12,4.12,0,0,0,5.81,0"/><path class="cls-1" d="M22.48,67.92a13.11,13.11,0,0,0-17.3-1.07A52,52,0,0,0,23.55,85.22a13.11,13.11,0,0,0-1.07-17.3"/><path class="cls-1" d="M25,59.64a4.1,4.1,0,1,0,5.81,0,4.1,4.1,0,0,0-5.81,0"/><path class="cls-1" d="M150.62,64.37c0,8.88-5.76,12.17-14.47,12.17H136c-8.71,0-14.47-3.21-14.47-12.17V29.83c0-8.55,5.76-12.17,14.47-12.17h.17c8.71,0,14.47,3.62,14.47,12.17v6.82h-9.54V31.32c0-4-2-5.27-5-5.27s-5,1.24-5,5.27V62.89c0,4,2,5.26,5,5.26s5-1.23,5-5.26V56.16h9.54Z"/><path class="cls-1" d="M184.42,63.06H173.9l-2.06,12.82h-9.21l10.69-57.56h12l10.85,57.56h-9.7Zm-1.23-7.9-4-25.57-4,25.57Z"/><polygon class="cls-1" points="209.18 75.88 209.18 18.32 218.72 18.32 230.81 53.93 230.81 18.32 239.52 18.32 239.52 75.88 230.48 75.88 217.9 38.47 217.9 75.88 209.18 75.88"/><polygon class="cls-1" points="273.9 75.88 263.38 75.88 252.53 18.32 262.23 18.32 268.89 61 275.55 18.32 284.76 18.32 273.9 75.88"/><path class="cls-1" d="M313.22,63.06H302.69l-2.05,12.82h-9.21l10.69-57.56h12L325,75.88h-9.71ZM312,55.16l-4-25.57-4,25.57Z"/><path class="cls-1" d="M355,35.17V30.82c0-3.62-2.06-4.93-4.85-4.93s-4.85,1.31-4.85,4.93v4c0,3,1,4.27,3.7,5.84l6.74,3.78c5.51,3.12,8.8,5.67,8.8,11.84v8.31c0,8.88-5.51,12-14.23,12h-.16c-8.72,0-14.23-3-14.23-12v-6.1h9.38v4.78c0,3.54,2.05,5.1,4.93,5.1s4.93-1.56,4.93-5.1V58.7c0-3-.9-4.44-3.78-6l-6.66-3.78c-5.59-3.21-8.8-5.84-8.8-11.84V29.51c0-8.56,6.25-11.85,14.15-11.85h.16c7.89,0,14.14,3.29,14.14,11.85v5.66Z"/></g></g></svg>